# xmcd
#
# Track frame offsets:
#	150
#	19735
#	40639
#	56747
#	76785
#	98200
#	116710
#	133391
#	149234
#	163508
#	176442
#	196219
#	213049
#	228389
#	246401
#	262109
#	277179
#	293932
#	312464
#
# Disc length: 4361 seconds
#
# Revision: 2
# Processed by: cddbd v1.5.2PL0 Copyright (c) Steve Scherf et al.
# Submitted via: EasyCDDAExtractor 15.2.5.1
#
DISCID=24110713
DTITLE=蔡國權 - 創作我的歌精選
DYEAR=2000
DGENRE=Alternative
TTITLE0=天意人心
TTITLE1=懷念你一世記
TTITLE2=寒傲似冰
TTITLE3=用手走路
TTITLE4=無心快語
TTITLE5=最后一班渡輪
TTITLE6=是誰在我耳邊唱
TTITLE7=世事如棋
TTITLE8=烽烟情焰
TTITLE9=風中勁草
TTITLE10=創作我的歌
TTITLE11=海底計
TTITLE12=我心未冷
TTITLE13=一張俏臉
TTITLE14=追憶
TTITLE15=想念你
TTITLE16=情難舍
TTITLE17=愛的獨白
TTITLE18=盡訴心中請
EXTD=
EXTT0=
EXTT1=
EXTT2=
EXTT3=
EXTT4=
EXTT5=
EXTT6=
EXTT7=
EXTT8=
EXTT9=
EXTT10=
EXTT11=
EXTT12=
EXTT13=
EXTT14=
EXTT15=
EXTT16=
EXTT17=
EXTT18=
PLAYORDER=
